<?xml version="1.0" encoding="UTF-8"?><svg id="Calque_2" xmlns="http://www.w3.org/2000/svg" viewBox="0 0 131.49 131.48"><defs><style>.cls-1,.cls-2{fill:#fd2d01;}.cls-3{fill:none;}.cls-3,.cls-2{stroke:#fd2d01;stroke-miterlimit:10;}</style></defs><path class="cls-2" d="M65.73,.52C29.71,.52,.51,29.72,.51,65.74s29.2,65.23,65.22,65.23,65.23-29.2,65.23-65.23S101.76,.52,65.73,.52ZM17.83,91.5h19.02c.52,7.72,8.57,24.28,8.82,24.8-11.95-4.73-21.8-13.58-27.84-24.8Zm95.53,.52h-.01v.02s-.02,.03-.04,.05c-3.8,6.87-9.06,12.83-15.35,17.46-4.66,4.02-9.88,7.28-14.87,7.75-4.35,1.46-8.94,2.39-13.7,2.7-.03,.04-.08,.09-.12,.13h-9.44s-.09-.12-.24-.35c-1.56-2.27-10.08-15.16-12.63-27.76h28.91c-.79-1.71-1.23-3.62-1.23-5.63s.4-3.73,1.11-5.38h-30.73s-2.96-20.29,0-23.26c.03-.03,.05-.05,.08-.08-.92,.2-1.87,.3-2.85,.3-3.05,0-5.85-1.01-8.1-2.71-.94,5.43-.55,22.97,.42,25.75H13.52c-1.41-4.84-2.17-9.97-2.17-15.27s.7-10.04,2.01-14.72h.01s13.65-.01,17.08-.01c-1.07-1.94-1.68-4.16-1.68-6.53,0-1.54,.26-3.02,.74-4.39-.02,.04-.04,.09-.06,.14h-11.76c0-2.93,10.99-19.33,28.84-25.39-1.75,2.87-6.39,14.87-6.51,16.34-.77,.02-2.62,.44-4.64,1.7,2.01-1.19,4.36-1.88,6.87-1.88,2.82,0,5.44,.87,7.6,2.34,3.62-11.95,10.08-21.69,10.85-21.75,.77-.07,9.29-.07,9.29-.07,12.18,.94,23.23,5.89,31.84,13.54,4.93,3.96,9.55,9.03,11.95,15.17,2.56,4.82,4.43,10.08,5.44,15.63,2.42,7.91,1.26,15.36-.06,20.06-1.08,5.74-3.06,11.16-5.8,16.1Z"/><path class="cls-3" d="M45.67,116.3c-11.95-4.73-21.8-13.58-27.84-24.8h19.02c.52,7.72,8.57,24.28,8.82,24.8Z"/><path class="cls-3" d="M46.53,14.84c-1.75,2.87-6.39,14.87-6.51,16.34-.77,.02-2.62,.44-4.64,1.7-.05,.03-.11,.07-.16,.1-2.06,1.33-4.28,3.54-5.71,7.11-.02,.04-.04,.09-.06,.14h-11.76c0-2.93,10.99-19.33,28.84-25.39Z"/><path class="cls-3" d="M34.57,81.01H13.52c-1.41-4.84-2.17-9.97-2.17-15.27s.7-10.04,2.01-14.72h.01s13.65-.01,17.08-.01c.01,.01,.02,.02,.02,.03,1.52,2.03,1.18,1.77,3.67,4.21h.01c-.94,5.44-.55,22.98,.42,25.76Z"/><path class="cls-3" d="M82.51,40.23h-27.48c-.22-.3-3.69-4.98-5.17-6.88-.01,0-.01,0-.01,0,3.62-11.95,10.08-21.69,10.85-21.75,.77-.07,9.29-.07,9.29-.07,0,0,11.94,21.61,12.52,28.71Z"/><path class="cls-3" d="M113.78,40.23h-20.66c-1.21-6.79-7.11-22.76-9.48-25.69,0,0,9.55,3.56,18.19,10.52,4.93,3.96,9.55,9.03,11.95,15.17Z"/><path class="cls-3" d="M85.28,51.01v22.15l-.06,.05c-4.26,.94-7.76,3.88-9.46,7.79h-.01s-30.73,.01-30.73,.01c0,0-2.96-20.29,0-23.26,.03-.03,.05-.05,.08-.08,3.85-.83,7.09-3.31,8.94-6.66h31.24Z"/><path class="cls-3" d="M75.88,92.03l4.84,5.63s-6.68,17.66-11.33,22.34c-.03,.04-.08,.09-.12,.13h-9.44s-.09-.12-.24-.35c-1.56-2.27-10.08-15.16-12.63-27.76h28.92Z"/><path class="cls-3" d="M113.36,92.02h-.01v.02s-.02,.03-.04,.05c-3.8,6.87-9.06,12.83-15.35,17.46-4.66,4.02-9.88,7.28-14.87,7.75,1.99-4.49,6.5-11.29,7.2-17.6h0c4.49-.73,8.24-3.68,10.08-7.68h12.99Z"/><path class="cls-3" d="M119.16,75.92c-.89,3.16-1.85,5.08-1.85,5.08h-16.83c-.96-2.2-2.48-4.09-4.39-5.49,.3-3.31-1.08-24.66-1.08-24.66,0,0,6.59,.2,22.3,.2,.8,1.61,1.43,3.22,1.91,4.81,2.42,7.91,1.26,15.36-.06,20.06Z"/><path class="cls-1" d="M34.14,55.25c-1.5-1.13-2.76-2.56-3.67-4.21,1.52,2.03,1.18,1.77,3.67,4.21Z"/><path class="cls-1" d="M35.22,32.98c-2.06,1.33-4.28,3.54-5.71,7.11,1.02-2.98,3.06-5.49,5.71-7.11Z"/><path class="cls-1" d="M55.03,40.22c-.22-.29-3.69-4.97-5.17-6.87,2.4,1.65,4.25,4.05,5.17,6.87Z"/><path class="cls-1" d="M80.72,97.66c-2.1-1.38-3.79-3.33-4.84-5.63l4.84,5.63Z"/><path class="cls-3" d="M45.67,116.3c-11.95-4.73-21.8-13.58-27.84-24.8h19.02c.52,7.72,8.57,24.28,8.82,24.8Z"/><path class="cls-2" d="M117.31,51.05c-15.71,0-22.3-.2-22.3-.2,0,0,1.38,21.35,1.08,24.66-2.23-1.64-4.99-2.61-7.97-2.61-.99,0-1.96,.11-2.9,.31l.06-.05v-22.15h-31.24c-1.85,3.35-5.09,5.83-8.94,6.66-.92,.2-1.87,.3-2.85,.3-3.05,0-5.85-1.01-8.1-2.71h-.01c-2.49-2.45-2.15-2.19-3.67-4.22,0,0,0-.02-.02-.03-1.07-1.94-1.68-4.16-1.68-6.53,0-1.54,.26-3.02,.74-4.39,1.43-3.57,3.65-5.78,5.71-7.11,.05-.03,.11-.07,.16-.1,2.01-1.19,4.36-1.88,6.87-1.88,2.82,0,5.44,.87,7.6,2.34,0,0,0,0,.01,0,1.48,1.9,4.95,6.58,5.17,6.87h.01s20.31,.01,27.47,.01c-.58-7.1-12.52-28.71-12.52-28.71,12.18,.94,23.23,5.89,31.84,13.54-8.64-6.96-18.19-10.52-18.19-10.52,2.37,2.93,8.27,18.9,9.48,25.69h20.66c2.56,4.82,4.43,10.08,5.44,15.63-.48-1.59-1.11-3.2-1.91-4.81Z"/><path class="cls-3" d="M34.57,81.01H13.52c-1.41-4.84-2.17-9.97-2.17-15.27s.7-10.04,2.01-14.72h.01s13.65-.01,17.08-.01c.01,.01,.02,.02,.02,.03,1.52,2.03,1.18,1.77,3.67,4.21h.01c-.94,5.44-.55,22.98,.42,25.76Z"/><path class="cls-3" d="M46.53,14.84c-1.75,2.87-6.39,14.87-6.51,16.34-.77,.02-2.62,.44-4.64,1.7-.05,.03-.11,.07-.16,.1-2.06,1.33-4.28,3.54-5.71,7.11-.02,.04-.04,.09-.06,.14h-11.75c6.16-11.6,16.41-20.7,28.83-25.39Z"/><path class="cls-3" d="M82.51,40.23h-27.48c-.22-.3-3.69-4.98-5.17-6.88-.01,0-.01,0-.01,0,3.62-11.95,10.08-21.69,10.85-21.75,.77-.07,9.29-.07,9.29-.07,0,0,11.94,21.61,12.52,28.71Z"/><path class="cls-3" d="M113.77,40.23h-20.65c-1.21-6.79-7.11-22.76-9.48-25.69,0,0,9.55,3.56,18.19,10.52,4.83,4.28,8.89,9.42,11.94,15.17Z"/><path class="cls-2" d="M119.16,75.92c-1.08,5.74-3.06,11.16-5.8,16.1h-12.99c-1.84,4-5.59,6.95-10.08,7.67h0c-.7,6.32-5.21,13.12-7.2,17.61-4.35,1.46-8.94,2.39-13.7,2.7,4.65-4.68,11.33-22.34,11.33-22.34l-4.84-5.63h-.01c-.79-1.72-1.23-3.63-1.23-5.64s.4-3.73,1.11-5.38h.01c1.7-3.92,5.2-6.86,9.46-7.8,.94-.2,1.91-.31,2.9-.31,2.98,0,5.74,.97,7.97,2.61,1.91,1.4,3.43,3.29,4.39,5.49h16.83s.96-1.92,1.85-5.08Z"/><path class="cls-3" d="M85.28,51.01v22.15l-.06,.05c-4.26,.94-7.76,3.88-9.46,7.79h-.01s-30.73,.01-30.73,.01c0,0-2.96-20.29,0-23.26,.03-.03,.05-.05,.08-.08,3.85-.83,7.09-3.31,8.94-6.66h31.24Z"/><path class="cls-3" d="M75.88,92.03l4.84,5.63s-6.68,17.66-11.33,22.34c-1.21,.09-2.43,.13-3.66,.13-2.08,0-4.13-.12-6.14-.35-1.56-2.27-10.08-15.16-12.63-27.76h28.92Z"/><path class="cls-3" d="M113.35,92.02h0v.02s-.02,.03-.04,.05c-3.8,6.87-9.06,12.83-15.35,17.46-4.48,3.31-9.49,5.94-14.87,7.75,1.99-4.49,6.5-11.29,7.2-17.6h0c4.49-.73,8.24-3.68,10.08-7.68h12.98Z"/><path class="cls-3" d="M120.12,65.74c0,3.48-.33,6.88-.96,10.18-.89,3.16-1.85,5.08-1.85,5.08h-16.83c-.96-2.2-2.48-4.09-4.39-5.49,.3-3.31-1.08-24.66-1.08-24.66,0,0,6.59,.2,22.3,.2,.8,1.61,1.43,3.22,1.91,4.81,.59,3.2,.9,6.51,.9,9.88Z"/><path class="cls-3" d="M82.51,40.23h-27.48c-.22-.3-3.69-4.98-5.17-6.88-.01,0-.01,0-.01,0,3.62-11.95,10.08-21.69,10.85-21.75,.77-.07,9.29-.07,9.29-.07,0,0,11.94,21.61,12.52,28.71Z"/><path class="cls-3" d="M46.53,14.84c-1.75,2.87-6.39,14.87-6.51,16.34-.77,.02-2.62,.44-4.64,1.7-.05,.03-.11,.07-.16,.1-2.06,1.33-4.28,3.54-5.71,7.11-.02,.04-.04,.09-.06,.14h-11.76c0-2.93,10.99-19.33,28.84-25.39Z"/><path class="cls-3" d="M34.57,81.01H13.52c-1.41-4.84-2.17-9.97-2.17-15.27s.7-10.04,2.01-14.72h.01s13.65-.01,17.08-.01c.01,.01,.02,.02,.02,.03,1.52,2.03,1.18,1.77,3.67,4.21h.01c-.94,5.44-.55,22.98,.42,25.76Z"/><path class="cls-3" d="M113.78,40.23h-20.66c-1.21-6.79-7.11-22.76-9.48-25.69,0,0,9.55,3.56,18.19,10.52,4.93,3.96,9.55,9.03,11.95,15.17Z"/><path class="cls-3" d="M119.16,75.92c-.89,3.16-1.85,5.08-1.85,5.08h-16.83c-.96-2.2-2.48-4.09-4.39-5.49,.3-3.31-1.08-24.66-1.08-24.66,0,0,6.59,.2,22.3,.2,.8,1.61,1.43,3.22,1.91,4.81,2.42,7.91,1.26,15.36-.06,20.06Z"/><path class="cls-3" d="M113.36,92.02h-.01v.02s-.02,.03-.04,.05c-.61,.89-7.13,10.37-15.35,17.46-4.66,4.02-9.88,7.28-14.87,7.75,1.99-4.49,6.5-11.29,7.2-17.6h0c4.49-.73,8.24-3.68,10.08-7.68h12.99Z"/><path class="cls-3" d="M80.72,97.66s-6.68,17.66-11.33,22.34c-.03,.04-.08,.09-.12,.13h-9.44s-.09-.12-.24-.35c-1.56-2.27-10.08-15.16-12.63-27.76h28.92s4.84,5.64,4.84,5.64Z"/><path class="cls-3" d="M45.67,116.3c-11.95-4.73-21.8-13.58-27.84-24.8h19.02c.52,7.72,8.57,24.28,8.82,24.8Z"/><path class="cls-3" d="M85.28,51.01v22.15l-.06,.05c-4.26,.94-7.76,3.88-9.46,7.79h-.01s-30.73,.01-30.73,.01c0,0-2.96-20.29,0-23.26,.03-.03,.05-.05,.08-.08,3.85-.83,7.09-3.31,8.94-6.66h31.24Z"/></svg>